{"title":"cowboys and aliens","uid":6613572,"size":1397246607,"categoryP":"video","categoryS":"movies","magnet":"?xt=urn:btih:1f590696070e30a51cb562ea9a1c7965ce2ddd21&amp;dn=cowboys+and+aliens&amp;tr=udp%3A%2F%2Ftracker.openbittorrent.com%3A80&amp;tr=udp%3A%2F%2Fopen.demonii.com%3A1337&amp;tr=udp%3A%2F%2Ftracker.coppersurfer.tk%3A6969&amp;tr=udp%3A%2F%2Fexodus.desync.com%3A6969","seeders":0,"leechers":0,"uploader":"stu181","files":1,"time":1313688868,"description":"Format                           : MPEG-4\nFormat profile                   : Base Media\nCodec ID                         : isom\nFile size                        : 1.30 GiB\nDuration                         : 1h 53mn\nOverall bit rate                 : 1 636 Kbps\nEncoded date                     : UTC 2011-08-03 01:52:43\nTagged date                      : UTC 2011-08-03 01:52:43\n\nVideo\nID                               : 1\nFormat                           : AVC\nFormat/Info                      : Advanced Video Codec\nFormat profile                   : &lt;a class=&quot;__cf_email__&quot; href=&quot;/cdn-cgi/l/email-protection&quot; data-cfemail=&quot;f5bd9c929db5b9c1dbc7&quot;&gt;[email&amp;#160;protected]&lt;/a&gt;&lt;script cf-hash='f9e31' type=&quot;text/javascript&quot;&gt;\n/* &lt;![CDATA[ */!function(){try{var t=&quot;currentScript&quot;in document?document.currentScript:function(){for(var t=document.getElementsByTagName(&quot;script&quot;),e=t.length;e--;)if(t[e].getAttribute(&quot;cf-hash&quot;))return t[e]}();if(t&amp;&amp;t.previousSibling){var e,r,n,i,c=t.previousSibling,a=c.getAttribute(&quot;data-cfemail&quot;);if(a){for(e=&quot;&quot;,r=parseInt(a.substr(0,2),16),n=2;a.length-n;n+=2)i=parseInt(a.substr(n,2),16)^r,e+=String.fromCharCode(i);e=document.createTextNode(e),c.parentNode.replaceChild(e,c)}}}catch(u){}}();/* ]]&gt; */&lt;/script&gt;\nFormat settings, CABAC           : Yes\nFormat settings, ReFrames        : 4 frames\nFormat settings, GOP             : M=1, N=21\nCodec ID                         : avc1\nCodec ID/Info                    : Advanced Video Coding\nDuration                         : 1h 53mn\nBit rate                         : 1 504 Kbps\nMaximum bit rate                 : 7 585 Kbps\nWidth                            : 720 pixels\nHeight                           : 304 pixels\nDisplay aspect ratio             : 2.35:1\nFrame rate mode                  : Constant\nFrame rate                       : 29.000 fps\nColor space                      : YUV\nChroma subsampling               : 4:2:0\nBit depth                        : 8 bits\nScan type                        : Progressive\nBits/(Pixel*Frame)               : 0.237\nStream size                      : 1.20 GiB (92%)\nAudio\nID                               : 2\nFormat                           : AAC\nFormat/Info                      : Advanced Audio Codec\nFormat profile                   : LC\nCodec ID                         : 40\nDuration                         : 1h 53mn\nBit rate mode                    : Variable\nBit rate                         : 128 Kbps\nMaximum bit rate                 : 168 Kbps\nChannel(s)                       : 2 channels\nChannel positions                : Front: L R\nSampling rate                    : 44.1 KHz\nCompression mode                 : Lossy\nStream size                      : 104 MiB (8%)\nLanguage                         : English\nEncoded date                     : UTC 2011-08-03 01:53:38\nTagged date                      : UTC 2011-08-03 01:53:40\nMaterial_Duration                : 6831868\nMaterial_StreamSize              : 109316998\n\n\n","torrent":{"xt":"urn:btih:1f590696070e30a51cb562ea9a1c7965ce2ddd21","amp;dn":"cowboys+and+aliens","amp;tr":["udp%3A%2F%2Ftracker.openbittorrent.com%3A80","udp%3A%2F%2Fopen.demonii.com%3A1337","udp%3A%2F%2Ftracker.coppersurfer.tk%3A6969","udp%3A%2F%2Fexodus.desync.com%3A6969"],"infoHash":"1f590696070e30a51cb562ea9a1c7965ce2ddd21","infoHashBuffer":{"type":"Buffer","data":[31,89,6,150,7,14,48,165,28,181,98,234,154,28,121,101,206,45,221,33]},"announce":[],"urlList":[]}}